<svg width="45" height="45" viewBox="0 0 45 45" fill="none" xmlns="http://www.w3.org/2000/svg">
<mask id="mask0_2_38" style="mask-type:alpha" maskUnits="userSpaceOnUse" x="0" y="0" width="45" height="45">
<path d="M2.8125 5.625C2.8125 2.51807 5.33057 0 8.4375 0H22.5C25.6025 0 28.125 2.51807 28.125 5.625V22.5H28.8281C33.0996 22.5 36.5625 25.9629 36.5625 30.2344V33.0469C36.5625 34.2158 37.5029 35.1562 38.6719 35.1562C39.8408 35.1562 40.7812 34.2158 40.7812 33.0469V19.4326C38.3555 18.8877 36.5625 16.6816 36.5625 14.0625V8.4375L33.75 5.625C32.9766 4.84805 32.9766 3.58945 33.75 2.8125C34.5234 2.03555 35.7891 2.03555 36.5625 2.8125L43.3564 9.60645C44.4111 10.6611 45 12.085 45 13.5791V33.0469C45 36.5449 42.1699 39.375 38.6719 39.375C35.1738 39.375 32.3438 36.5449 32.3438 33.0469V30.2344C32.3438 28.292 30.7705 26.6396 28.8281 26.6396H28.125V39.375C29.6807 39.375 30.9375 40.6318 30.9375 42.1875C30.9375 43.7432 29.6807 45 28.125 45H2.8125C1.25947 45 0 43.7432 0 42.1875C0 40.6318 1.25947 39.375 2.8125 39.375V5.625ZM8.4375 15.4688C8.4375 16.2422 9.07031 16.875 9.84375 16.875H21.0938C21.8672 16.875 22.5 16.2422 22.5 15.4688V7.03125C22.5 6.2543 21.8672 5.625 21.0938 5.625H9.84375C9.07031 5.625 8.4375 6.2543 8.4375 7.03125V15.4688Z" fill="#E86F2B"/>
</mask>
<g mask="url(#mask0_2_38)">
<path d="M2.8125 5.625C2.8125 2.51807 5.33057 0 8.4375 0H22.5C25.6025 0 28.125 2.51807 28.125 5.625V22.5H28.8281C33.0996 22.5 36.5625 25.9629 36.5625 30.2344V33.0469C36.5625 34.2158 37.5029 35.1562 38.6719 35.1562C39.8408 35.1562 40.7812 34.2158 40.7812 33.0469V19.4326C38.3555 18.8877 36.5625 16.6816 36.5625 14.0625V8.4375L33.75 5.625C32.9766 4.84805 32.9766 3.58945 33.75 2.8125C34.5234 2.03555 35.7891 2.03555 36.5625 2.8125L43.3564 9.60645C44.4111 10.6611 45 12.085 45 13.5791V33.0469C45 36.5449 42.1699 39.375 38.6719 39.375C35.1738 39.375 32.3438 36.5449 32.3438 33.0469V30.2344C32.3438 28.292 30.7705 26.6396 28.8281 26.6396H28.125V39.375C29.6807 39.375 30.9375 40.6318 30.9375 42.1875C30.9375 43.7432 29.6807 45 28.125 45H2.8125C1.25947 45 0 43.7432 0 42.1875C0 40.6318 1.25947 39.375 2.8125 39.375V5.625ZM8.4375 15.4688C8.4375 16.2422 9.07031 16.875 9.84375 16.875H21.0938C21.8672 16.875 22.5 16.2422 22.5 15.4688V7.03125C22.5 6.2543 21.8672 5.625 21.0938 5.625H9.84375C9.07031 5.625 8.4375 6.2543 8.4375 7.03125V15.4688Z" fill="#B54E14"/>
<ellipse cx="5.7733" cy="0.29681" rx="13.4178" ry="16.0713" fill="#9B4311"/>
<ellipse cx="22.5001" cy="22.5001" rx="16.7528" ry="17.8898" fill="#EC8B55"/>
<ellipse cx="0.517358" cy="38.3006" rx="13.1729" ry="13.035" fill="#E86F2B"/>
<ellipse cx="41.5932" cy="38.0652" rx="16.3699" ry="12.4724" fill="#DE6019"/>
<ellipse cx="39.2482" cy="8.80711" rx="17.4672" ry="17.6657" fill="#F1A77E"/>
<g filter="url(#filter0_b_2_38)">
<path d="M2.8125 5.625C2.8125 2.51807 5.33057 0 8.4375 0H22.5C25.6025 0 28.125 2.51807 28.125 5.625V22.5H28.8281C33.0996 22.5 36.5625 25.9629 36.5625 30.2344V33.0469C36.5625 34.2158 37.5029 35.1562 38.6719 35.1562C39.8408 35.1562 40.7812 34.2158 40.7812 33.0469V19.4326C38.3555 18.8877 36.5625 16.6816 36.5625 14.0625V8.4375L33.75 5.625C32.9766 4.84805 32.9766 3.58945 33.75 2.8125C34.5234 2.03555 35.7891 2.03555 36.5625 2.8125L43.3564 9.60645C44.4111 10.6611 45 12.085 45 13.5791V33.0469C45 36.5449 42.1699 39.375 38.6719 39.375C35.1738 39.375 32.3438 36.5449 32.3438 33.0469V30.2344C32.3438 28.292 30.7705 26.6396 28.8281 26.6396H28.125V39.375C29.6807 39.375 30.9375 40.6318 30.9375 42.1875C30.9375 43.7432 29.6807 45 28.125 45H2.8125C1.25947 45 0 43.7432 0 42.1875C0 40.6318 1.25947 39.375 2.8125 39.375V5.625ZM8.4375 15.4688C8.4375 16.2422 9.07031 16.875 9.84375 16.875H21.0938C21.8672 16.875 22.5 16.2422 22.5 15.4688V7.03125C22.5 6.2543 21.8672 5.625 21.0938 5.625H9.84375C9.07031 5.625 8.4375 6.2543 8.4375 7.03125V15.4688Z" fill="#E86F2B" fill-opacity="0.01"/>
</g>
<g filter="url(#filter1_bii_2_38)">
<path d="M2.8125 5.625C2.8125 2.51807 5.33057 0 8.4375 0H22.5C25.6025 0 28.125 2.51807 28.125 5.625V22.5H28.8281C33.0996 22.5 36.5625 25.9629 36.5625 30.2344V33.0469C36.5625 34.2158 37.5029 35.1562 38.6719 35.1562C39.8408 35.1562 40.7812 34.2158 40.7812 33.0469V19.4326C38.3555 18.8877 36.5625 16.6816 36.5625 14.0625V8.4375L33.75 5.625C32.9766 4.84805 32.9766 3.58945 33.75 2.8125C34.5234 2.03555 35.7891 2.03555 36.5625 2.8125L43.3564 9.60645C44.4111 10.6611 45 12.085 45 13.5791V33.0469C45 36.5449 42.1699 39.375 38.6719 39.375C35.1738 39.375 32.3438 36.5449 32.3438 33.0469V30.2344C32.3438 28.292 30.7705 26.6396 28.8281 26.6396H28.125V39.375C29.6807 39.375 30.9375 40.6318 30.9375 42.1875C30.9375 43.7432 29.6807 45 28.125 45H2.8125C1.25947 45 0 43.7432 0 42.1875C0 40.6318 1.25947 39.375 2.8125 39.375V5.625ZM8.4375 15.4688C8.4375 16.2422 9.07031 16.875 9.84375 16.875H21.0938C21.8672 16.875 22.5 16.2422 22.5 15.4688V7.03125C22.5 6.2543 21.8672 5.625 21.0938 5.625H9.84375C9.07031 5.625 8.4375 6.2543 8.4375 7.03125V15.4688Z" fill="#E86F2B" fill-opacity="0.1"/>
</g>
</g>
<defs>
<filter id="filter0_b_2_38" x="-204.8" y="-204.8" width="454.6" height="454.6" filterUnits="userSpaceOnUse" color-interpolation-filters="sRGB">
<feFlood flood-opacity="0" result="BackgroundImageFix"/>
<feGaussianBlur in="BackgroundImage" stdDeviation="102.4"/>
<feComposite in2="SourceAlpha" operator="in" result="effect1_backgroundBlur_2_38"/>
<feBlend mode="normal" in="SourceGraphic" in2="effect1_backgroundBlur_2_38" result="shape"/>
</filter>
<filter id="filter1_bii_2_38" x="-6" y="-6" width="57" height="57" filterUnits="userSpaceOnUse" color-interpolation-filters="sRGB">
<feFlood flood-opacity="0" result="BackgroundImageFix"/>
<feGaussianBlur in="BackgroundImage" stdDeviation="3"/>
<feComposite in2="SourceAlpha" operator="in" result="effect1_backgroundBlur_2_38"/>
<feBlend mode="normal" in="SourceGraphic" in2="effect1_backgroundBlur_2_38" result="shape"/>
<feColorMatrix in="SourceAlpha" type="matrix" values="0 0 0 0 0 0 0 0 0 0 0 0 0 0 0 0 0 0 127 0" result="hardAlpha"/>
<feOffset dx="-3" dy="3"/>
<feGaussianBlur stdDeviation="1.5"/>
<feComposite in2="hardAlpha" operator="arithmetic" k2="-1" k3="1"/>
<feColorMatrix type="matrix" values="0 0 0 0 1 0 0 0 0 1 0 0 0 0 1 0 0 0 0.1 0"/>
<feBlend mode="normal" in2="shape" result="effect2_innerShadow_2_38"/>
<feColorMatrix in="SourceAlpha" type="matrix" values="0 0 0 0 0 0 0 0 0 0 0 0 0 0 0 0 0 0 127 0" result="hardAlpha"/>
<feOffset dx="3" dy="-3"/>
<feGaussianBlur stdDeviation="1.5"/>
<feComposite in2="hardAlpha" operator="arithmetic" k2="-1" k3="1"/>
<feColorMatrix type="matrix" values="0 0 0 0 0.690333 0 0 0 0 0.33136 0 0 0 0 0.129438 0 0 0 0.1 0"/>
<feBlend mode="normal" in2="effect2_innerShadow_2_38" result="effect3_innerShadow_2_38"/>
</filter>
</defs>
</svg>
